<?xml version="1.0" encoding="UTF-8" standalone="no"?>
<svg
   xmlns:dc="http://purl.org/dc/elements/1.1/"
   xmlns:cc="http://creativecommons.org/ns#"
   xmlns:rdf="http://www.w3.org/1999/02/22-rdf-syntax-ns#"
   xmlns:svg="http://www.w3.org/2000/svg"
   xmlns="http://www.w3.org/2000/svg"
   xmlns:sodipodi="http://sodipodi.sourceforge.net/DTD/sodipodi-0.dtd"
   xmlns:inkscape="http://www.inkscape.org/namespaces/inkscape"
   id="svg931"
   version="1.1"
   viewBox="0 0 120.39909 92.634018"
   height="92.634018mm"
   width="120.39909mm"
   sodipodi:docname="step2 (copy).svg"
   inkscape:version="0.92.4 (unknown)">
  <sodipodi:namedview
     pagecolor="#ffffff"
     bordercolor="#666666"
     borderopacity="1"
     objecttolerance="10"
     gridtolerance="10"
     guidetolerance="10"
     inkscape:pageopacity="0"
     inkscape:pageshadow="2"
     inkscape:window-width="1596"
     inkscape:window-height="771"
     id="namedview9"
     showgrid="false"
     inkscape:zoom="0.2102413"
     inkscape:cx="-474.56834"
     inkscape:cy="-30.62636"
     inkscape:window-x="0"
     inkscape:window-y="108"
     inkscape:window-maximized="0"
     inkscape:current-layer="svg931" />
  <defs
     id="defs925" />
  <metadata
     id="metadata928">
    <rdf:RDF>
      <cc:Work
         rdf:about="">
        <dc:format>image/svg+xml</dc:format>
        <dc:type
           rdf:resource="http://purl.org/dc/dcmitype/StillImage" />
        <dc:title />
      </cc:Work>
    </rdf:RDF>
  </metadata>
  <g
     id="layer1"
     transform="translate(-32.982365,-47.762757)">
    <path
       style="fill:#30b400;fill-opacity:1;stroke-width:0.20818841"
       d="m 107.47001,119.80079 c 0.43449,-0.89001 2.02297,0.0635 1.04781,-1.44337 0.0583,-1.16627 -0.32706,-3.00062 0.88377,-3.37702 0.23837,-1.72193 1.4392,-2.0338 1.81623,-3.67557 1.2077,-2.03858 1.93948,0.8011 2.70041,1.60596 0.60958,0.0502 0.0489,-2.78639 1.29056,-2.95565 0.17676,-1.87078 1.78251,-2.93858 2.92817,-4.39048 0.94122,-0.0119 1.39716,2.58091 1.74192,0.31811 0.97411,-0.72283 1.51436,-1.72609 2.62296,-2.71998 1.1059,1.91679 1.97279,-1.36363 3.11388,-1.16877 0.88417,-0.8338 1.57473,-2.880077 2.88487,-2.754337 -0.23671,1.822897 0.3358,2.842187 0.27709,4.509777 1.31304,-0.0525 0.2009,1.78439 0.64101,2.48994 -0.35808,1.0807 -0.67703,1.95925 0.5948,2.28653 -0.46739,1.6043 -1.50666,2.7458 -2.2018,4.11734 -1.13609,1.25247 -0.70535,2.20722 0.80111,1.02075 1.72754,-1.17189 2.72727,-1.47897 4.59242,-2.63129 0.94435,-0.22048 0.67328,1.5206 1.79501,0.35829 0.68119,-0.27315 1.66696,-0.88418 1.85454,0.23025 1.09653,7.9e-4 3.02643,-0.9866 3.61353,0.1524 -0.48176,1.18584 -1.3043,2.8093 0.72033,2.29819 0.9968,0.34185 2.83136,-1.11214 2.35961,0.96496 0.008,1.09049 2.6036,-0.69827 2.21262,1.1619 1.08362,-0.41117 1.89202,-0.18425 2.59236,0.17071 1.30617,-0.29855 2.68563,0.14282 4.06238,-0.41846 2.7814,-0.27939 -1.2129,2.57008 -2.36752,2.53657 -1.33761,0.46613 -2.09603,1.43733 -3.42886,1.59077 1.67821,1.09069 -1.74191,1.58868 -1.11776,2.66647 -1.1975,0.26169 0.95996,2.03629 -0.99369,2.1714 -0.42158,0.59938 -1.51581,0.21652 -1.70901,1.10383 -1.17689,-0.14074 -2.16766,0.31707 -0.96912,1.41172 1.49583,2.05836 -2.42852,0.98348 -2.50388,2.09458 -1.66884,-0.25753 -3.18362,0.0681 -4.78085,-0.11346 -0.47112,0.67495 -2.79971,-0.47051 -2.84884,0.3483 0.96704,1.29139 2.58279,1.54289 3.6233,2.60464 0.72221,0.38661 1.35823,1.42526 0.20362,1.75545 0.32977,1.2483 2.07959,1.77252 1.5408,2.81658 0.60916,0.62477 2.10874,2.40915 1.30451,3.01707 -1.59805,-0.78779 -3.17779,-1.29722 -4.52935,-1.01867 -0.76031,-0.55774 -1.53622,-0.81505 -1.8052,0.21839 -1.22477,-0.10867 -3.17404,-2.11062 -2.8093,0.15781 -1.39403,-0.0315 -2.41227,0.0939 -3.53649,-0.71513 -0.72949,-0.85462 -1.52561,0.48321 -2.18682,-1.0601 -0.73073,-0.66515 -2.11976,-1.08028 -1.55724,0.41076 0.30479,1.90222 -0.26649,3.36599 -2.17599,1.76357 -1.44004,0.0755 -2.31797,-1.37801 -3.33476,-1.70132 -1.23581,-0.0273 -1.81353,-2.13394 -2.66939,-2.94982 -0.36266,-0.35496 -1.7417,-0.44615 -1.33762,-1.77877 -0.29042,-2.01963 0.98578,-3.44572 1.87287,-5.10311 -2.22262,0.65017 -4.37925,1.5256 -6.59312,2.20618 -2.03567,-0.14928 1.87078,-1.27578 2.59424,-1.56829 1.51353,-0.53962 3.10575,-0.98952 4.51893,-1.72859 -2.11915,-0.22297 -3.94288,-1.39216 -5.56987,-2.68979 -0.3916,-1.36947 -1.55537,-2.41249 -1.81332,-3.82672 -0.004,-0.2569 -0.047,-0.52067 0.0342,-0.7705 z"
       id="path77"
       inkscape:connector-curvature="0" />
    <path
       style="fill:#c18a00;fill-opacity:1;stroke-width:0.21747981"
       d="m 94.651582,93.670917 c -0.508293,-1.08088 1.587593,-1.853456 -0.565076,-2.075203 -1.052336,-0.935525 -3.067179,-1.958877 -2.506461,-3.381033 -1.438509,-1.524627 -0.824659,-2.888931 -2.082922,-4.483302 -1.00387,-2.674453 2.217755,-1.217657 3.548917,-1.324867 0.507492,-0.535083 -2.581956,-2.150565 -1.803054,-3.44507 -1.624754,-1.579112 -1.415685,-3.894855 -1.914933,-6.068092 0.699623,-0.893577 3.480686,0.635992 1.61444,-1.39667 0.05643,-1.461751 -0.478582,-2.727244 -0.575424,-4.519702 2.636754,0.408235 0.208562,-2.883919 1.253323,-3.809474 -0.116042,-1.460547 -1.51753,-3.655068 -0.409843,-4.791616 1.534425,1.599345 2.92489,1.831087 4.447804,3.145561 0.942418,-1.273593 1.829067,1.158918 2.824379,1.278282 0.745287,1.152847 1.330119,2.115873 2.598388,1.167894 1.15474,1.650906 1.44245,3.489714 2.20671,5.179194 0.31891,2.013447 1.5417,2.329732 1.56442,0.0178 0.20313,-2.508784 0.66947,-3.680226 0.99546,-6.303607 0.50579,-1.054059 1.93748,0.515894 1.6923,-1.4164 0.25779,-0.846337 0.42816,-2.234287 1.61702,-1.56922 0.82918,-1.029479 1.35858,-3.589292 2.87243,-3.28093 0.75075,1.348506 1.65538,3.347578 2.70415,1.058819 1.07415,-0.678679 1.09286,-3.501113 2.68864,-1.488994 1.03105,0.816464 1.31046,-2.974424 2.76347,-1.20199 0.432,-1.329034 1.25578,-1.917505 2.11823,-2.307459 0.70596,-1.453183 2.16268,-2.416465 2.67493,-4.133952 1.8386,-2.825807 1.49962,3.080806 0.59585,4.140734 -0.57203,1.609026 -0.23215,3.055631 -1.09455,4.423992 2.29244,-0.753301 0.17752,2.836838 1.66191,3.064423 -0.65833,1.323064 2.63893,0.635605 1.29037,2.573758 0.24499,0.849001 -0.94125,1.588409 -0.25312,2.440128 -1.02141,0.999816 -1.33953,2.276649 0.59442,1.977023 3.06448,0.148743 -0.90955,3.025195 0.0778,3.935214 -1.50254,1.373888 -2.34047,3.043655 -3.71756,4.407422 0.27862,0.95278 -2.55661,2.276196 -1.82418,2.940875 1.94418,0.06636 3.40057,-1.26222 5.18462,-1.438328 0.90877,-0.386716 2.36532,-0.20015 1.80345,1.134583 1.42241,0.632735 3.23661,-0.616013 3.8111,0.67889 1.04721,-0.10044 3.8568,-0.162293 3.8208,1.052529 -1.94725,0.907361 -3.61929,2.007079 -4.37814,3.487849 -1.0985,0.293099 -1.92643,0.82808 -1.15834,1.861393 -1.02702,1.069025 -4.38086,1.389201 -1.9735,2.759544 -1.08235,1.286582 -1.73354,2.338187 -3.34311,2.783666 -1.35414,0.04043 -0.69794,1.798845 -2.6478,1.254618 -1.17704,0.184465 -2.61615,1.176481 -0.79021,1.773966 2.01811,1.150042 2.96243,2.792619 0.0141,3.377088 -1.01643,1.410404 -3.04574,1.137812 -4.11748,1.84916 -0.95894,1.141047 -3.37539,0.0929 -4.78849,0.280916 -0.60762,0.07267 -1.7348,1.300201 -2.68202,-0.08607 -2.11748,-1.252394 -2.49419,-3.529052 -3.38181,-5.614603 -1.06762,2.580013 -1.87383,5.26816 -2.90589,7.862864 -1.67775,1.80052 0.21359,-2.721853 0.4853,-3.622547 0.63602,-1.830107 1.41566,-3.666285 1.78814,-5.552741 -1.81,1.823372 -4.28626,2.654304 -6.73453,3.203398 -1.582913,-0.666293 -3.44223,-0.360227 -4.966124,-1.185875 -0.244205,-0.19062 -0.525092,-0.34917 -0.698355,-0.613826 z"
       id="path87"
       inkscape:connector-curvature="0" />
    <path
       style="fill:#c21a01;fill-opacity:1;stroke-width:0.26458332"
       d="m 74.396624,136.34024 c -1.47532,0.0156 -1.26533,-2.73609 -2.62135,-0.43206 -1.59188,0.70073 -3.7775,2.43799 -5.08654,1.07677 -2.45225,0.83187 -3.669,-0.5592 -6.10681,0.0343 -3.520253,-0.24776 -0.22743,-3.11722 0.33658,-4.66746 -0.34015,-0.84525 -3.743223,1.79414 -4.797036,0.25373 -2.60901,1.01312 -5.102684,-0.41251 -7.800409,-0.96927 -0.644112,-1.24534 2.504031,-3.58274 -0.738797,-2.53181 -1.61305,-0.81473 -3.309461,-0.86462 -5.372734,-1.67754 1.814405,-2.75165 -3.132017,-1.71695 -3.634337,-3.36635 -1.700495,-0.62104 -4.886019,-0.17522 -5.592826,-2.00369 2.585287,-0.90121 3.560293,-2.34385 5.820175,-3.37878 -0.945982,-1.71332 2.242301,-1.45842 2.888113,-2.51516 1.677973,-0.24424 3.060662,-0.40589 2.64783,-2.31775 2.448198,-0.44847 4.661773,0.17404 6.952116,0.18417 2.425813,0.67703 3.409774,-0.53375 0.824661,-1.7479 -2.713554,-1.51842 -3.789511,-2.64449 -6.568646,-4.35964 -0.924017,-1.11002 1.575454,-1.91104 -0.721003,-2.62908 -0.818106,-0.72475 -2.289524,-1.62984 -0.930985,-2.62327 -0.730167,-1.46074 -3.333229,-3.371717 -2.208388,-4.913644 1.900826,-0.149695 4.61137,-0.137935 2.579699,-2.492696 -0.210015,-1.555537 -3.370724,-3.028263 -0.289923,-3.785994 1.447076,-0.73831 -2.667038,-3.001329 0.07055,-3.722129 -1.270468,-1.168544 -1.507924,-2.396446 -1.502338,-3.565933 -1.269525,-1.539992 -1.602223,-3.67152 -3.268327,-5.130129 -2.228497,-3.51814 4.231711,-0.100239 4.957549,1.459817 1.513324,1.470007 3.313033,1.831946 4.406588,3.504441 0.332551,-2.962651 3.277813,1.259158 4.296813,-0.291147 1.147396,1.41991 2.07079,-2.637378 3.554543,-0.125846 1.079388,0.161434 1.299887,1.873789 2.610307,1.539006 0.59815,1.661414 1.86869,2.67519 2.52685,0.348678 1.74266,-3.365796 2.93027,2.577507 4.45989,1.936397 0.77071,2.394042 2.21546,4.193648 3.0394,6.441733 1.21322,0.176932 1.24191,4.042397 2.36516,3.561312 1.07421,-2.149614 0.33072,-4.468734 1.05025,-6.563097 0.0329,-1.219642 0.99137,-2.759885 2.20173,-1.442472 1.44211,-1.272175 0.97251,-3.952254 2.72228,-3.93165 0.42567,-1.228101 1.80103,-4.415489 3.14712,-3.750326 0.0174,2.653505 0.3935,5.097312 1.66622,6.71112 -0.23556,1.384783 -0.0601,2.589637 1.49522,2.257983 0.67279,1.703538 -0.69215,5.635252 2.08507,3.635839 0.88857,1.877426 1.73485,3.14945 1.40782,5.186493 -0.65118,1.541814 1.66159,1.708914 0.0478,3.619304 -0.39801,1.41685 -0.0238,3.54356 1.58612,1.79968 2.32943,-1.67542 4.66008,-1.89137 3.80071,1.72073 1.06154,1.86704 -0.28825,4.00632 -0.0403,5.57575 0.78872,1.66403 -1.63132,3.83918 -2.14671,5.5232 -0.23068,0.71997 0.5685,2.61717 -1.47579,2.96834 -2.49558,1.73461 -5.24642,0.98692 -8.04549,0.91162 2.34908,2.52581 4.954,4.81365 7.33774,7.30724 1.15978,2.81041 -2.9474,-1.63973 -3.81946,-2.40796 -1.72873,-1.65536 -3.39026,-3.47539 -5.31756,-4.86376 1.11728,2.97051 0.77747,6.17922 0.1351,9.21167 -1.56233,1.43536 -2.17452,3.68139 -3.88548,4.96861 -0.33945,0.17649 -0.66219,0.41024 -1.0488,0.46866 z"
       id="path89"
       inkscape:connector-curvature="0" />
  </g>
</svg>
