<?xml version="1.0" encoding="UTF-8" standalone="no"?>
<svg
   xmlns:dc="http://purl.org/dc/elements/1.1/"
   xmlns:cc="http://creativecommons.org/ns#"
   xmlns:rdf="http://www.w3.org/1999/02/22-rdf-syntax-ns#"
   xmlns:svg="http://www.w3.org/2000/svg"
   xmlns="http://www.w3.org/2000/svg"
   xmlns:sodipodi="http://sodipodi.sourceforge.net/DTD/sodipodi-0.dtd"
   xmlns:inkscape="http://www.inkscape.org/namespaces/inkscape"
   id="svg4665"
   version="1.1"
   viewBox="0 0 171.15549 153.68309"
   height="153.68309mm"
   width="171.15549mm"
   sodipodi:docname="step3.svg"
   inkscape:version="0.92.4 (unknown)">
  <sodipodi:namedview
     pagecolor="#ffffff"
     bordercolor="#666666"
     borderopacity="1"
     objecttolerance="10"
     gridtolerance="10"
     guidetolerance="10"
     inkscape:pageopacity="0"
     inkscape:pageshadow="2"
     inkscape:window-width="1596"
     inkscape:window-height="771"
     id="namedview24"
     showgrid="false"
     inkscape:zoom="0.2102413"
     inkscape:cx="-459.01249"
     inkscape:cy="97.181327"
     inkscape:window-x="0"
     inkscape:window-y="108"
     inkscape:window-maximized="0"
     inkscape:current-layer="svg4665" />
  <defs
     id="defs4659" />
  <metadata
     id="metadata4662">
    <rdf:RDF>
      <cc:Work
         rdf:about="">
        <dc:format>image/svg+xml</dc:format>
        <dc:type
           rdf:resource="http://purl.org/dc/dcmitype/StillImage" />
        <dc:title />
      </cc:Work>
    </rdf:RDF>
  </metadata>
  <g
     id="layer1"
     transform="translate(-28.866546,-20.529462)">
    <path
       style="fill:#560000;fill-opacity:1;stroke-width:0.26458332"
       d="m 35.722667,139.07057 c -0.0783,-0.14314 0.20108,-0.26564 -0.0942,-0.27834 -0.15134,-0.1188 -0.43445,-0.24156 -0.36963,-0.44027 -0.20876,-0.19579 -0.13626,-0.38682 -0.3212,-0.59399 -0.15875,-0.35639 0.29236,-0.18415 0.47307,-0.20981 0.0648,-0.0773 -0.36989,-0.27199 -0.27437,-0.45482 -0.23442,-0.20188 -0.22516,-0.51938 -0.31115,-0.81148 0.0881,-0.12779 0.47969,0.058 0.20849,-0.20399 -0.004,-0.1995 -0.0878,-0.36777 -0.11562,-0.61145 0.36274,0.0341 0.004,-0.39476 0.13917,-0.5297 -0.0278,-0.19817 -0.23707,-0.48577 -0.0952,-0.64981 0.22225,0.20531 0.41381,0.22542 0.63236,0.39211 0.118,-0.18151 0.25902,0.14287 0.39555,0.15107 0.11112,0.15082 0.19896,0.27729 0.36406,0.13759 0.17093,0.21563 0.22543,0.46408 0.34343,0.68791 0.0603,0.272 0.22966,0.30507 0.21352,-0.0103 0.007,-0.34396 0.0609,-0.50747 0.0836,-0.86784 0.0603,-0.1479 0.26855,0.0542 0.21908,-0.20717 0.0283,-0.11747 0.0399,-0.30797 0.20743,-0.22727 0.10477,-0.14711 0.15557,-0.50059 0.36459,-0.47096 0.11351,0.17753 0.25348,0.44265 0.37757,0.12197 0.14075,-0.10133 0.12012,-0.4863 0.35427,-0.22516 0.14711,0.10266 0.15399,-0.41645 0.36671,-0.18679 0.0479,-0.18468 0.15532,-0.27173 0.26988,-0.33206 0.0841,-0.20399 0.2749,-0.34739 0.33046,-0.58578 0.22728,-0.40032 0.22993,0.40772 0.11536,0.55959 -0.0646,0.2241 -0.006,0.41857 -0.11271,0.61225 0.30639,-0.12171 0.0476,0.38549 0.25188,0.40428 -0.0788,0.18574 0.36513,0.0648 0.19738,0.34025 0.0402,0.11351 -0.11536,0.22411 -0.0145,0.3347 -0.13097,0.14473 -0.16378,0.32147 0.0976,0.26458 0.41884,-0.005 -0.0992,0.4199 0.0429,0.53579 -0.19341,0.19976 -0.29395,0.43444 -0.47042,0.63182 0.046,0.12753 -0.32968,0.33126 -0.22437,0.41593 0.26564,-0.007 0.45323,-0.20029 0.69506,-0.23892 0.12065,-0.0603 0.32094,-0.0468 0.25532,0.1397 0.19897,0.0746 0.43604,-0.1106 0.5252,0.0611 0.14182,-0.0222 0.5244,-0.054 0.52943,0.11191 -0.25797,0.1397 -0.47678,0.30375 -0.56806,0.51171 -0.14737,0.0492 -0.25559,0.12885 -0.14235,0.26352 -0.13123,0.15426 -0.58578,0.22543 -0.24632,0.39238 -0.13706,0.18442 -0.21696,0.33311 -0.43286,0.40719 -0.18442,0.0167 -0.0802,0.25109 -0.35057,0.19289 -0.15902,0.0349 -0.34714,0.18203 -0.0931,0.24844 0.28469,0.14023 0.42704,0.35639 0.0299,0.46037 -0.127,0.20056 -0.40587,0.18019 -0.5461,0.28602 -0.12144,0.16351 -0.45958,0.0405 -0.65061,0.0781 -0.0823,0.0148 -0.22569,0.19156 -0.36645,0.0103 -0.29898,-0.15319 -0.36909,-0.46064 -0.50747,-0.73766 -0.12409,0.36063 -0.21193,0.73369 -0.33126,1.09617 -0.21378,0.25929 0.007,-0.3728 0.0362,-0.49795 0.0717,-0.25479 0.16272,-0.5117 0.19791,-0.77179 -0.23151,0.26353 -0.56224,0.39714 -0.89165,0.49239 -0.22119,-0.0778 -0.47228,-0.0206 -0.68685,-0.12065 -0.0349,-0.0241 -0.0746,-0.0434 -0.10028,-0.078 z"
       id="path9"
       inkscape:connector-curvature="0" />
    <path
       style="fill:#186300;fill-opacity:1;stroke-width:0.26458332"
       d="m 180.52489,123.26172 c -0.2487,0.16086 -0.508,-0.32465 -0.48948,0.20849 -0.1905,0.28866 -0.37306,0.81545 -0.73818,0.72707 -0.32279,0.40296 -0.67734,0.29951 -1.02394,0.6612 -0.61913,0.33602 -0.37306,-0.50006 -0.4445,-0.82127 -0.14817,-0.10557 -0.43656,0.70353 -0.78052,0.55748 -0.32808,0.45032 -0.90223,0.4781 -1.41552,0.67416 -0.24077,-0.14023 0.037,-0.87128 -0.39423,-0.34661 -0.35983,0.036 -0.65088,0.20982 -1.08479,0.29448 0.0106,-0.65749 -0.71173,0.0474 -0.97367,-0.17621 -0.3519,0.0781 -0.83873,0.49504 -1.15358,0.26326 0.33602,-0.42915 0.3466,-0.77629 0.61648,-1.19274 -0.34396,-0.1868 0.2196,-0.48604 0.21431,-0.73316 0.25664,-0.22119 0.47096,-0.39661 0.19579,-0.67389 0.36513,-0.33814 0.80433,-0.47123 1.19063,-0.71517 0.48154,-0.14658 0.51593,-0.45588 -0.0503,-0.38259 -0.61912,0.036 -0.92075,-0.0381 -1.57162,-0.0283 -0.27517,-0.0876 0.0609,-0.49054 -0.40481,-0.36486 -0.21432,-0.0339 -0.55827,-0.0283 -0.43657,-0.34105 -0.28045,-0.16748 -0.92339,-0.20955 -0.89958,-0.58949 0.30427,-0.22913 0.762,-0.51806 0.16669,-0.69612 -0.20108,-0.23919 -0.89165,-0.14764 -0.45508,-0.60563 0.16404,-0.27967 -0.76994,-0.21855 -0.3863,-0.63368 -0.34131,-0.0601 -0.51064,-0.2413 -0.63764,-0.43841 -0.37836,-0.12277 -0.66146,-0.44556 -1.09802,-0.51224 -0.75407,-0.35242 0.70114,-0.47095 0.98954,-0.28654 0.41275,0.0849 0.75406,-0.0474 1.11654,0.11668 -0.26194,-0.53419 0.68792,-0.13996 0.69321,-0.51011 0.34396,0.11562 0.0635,-0.66596 0.58208,-0.4027 0.20109,-0.0886 0.42069,0.17569 0.6059,-0.0214 0.27781,0.21537 0.6006,0.2495 0.46302,-0.21246 -0.0688,-0.753 0.76729,0.11906 0.95779,-0.15293 0.38629,0.31988 0.82285,0.46752 1.20121,0.75724 0.22225,-0.10028 0.64294,0.54663 0.78052,0.34528 -0.0503,-0.47678 -0.42333,-0.78713 -0.52917,-1.21655 -0.12435,-0.20876 -0.127,-0.57071 0.21696,-0.4789 0.10583,-0.36883 -0.26194,-0.76914 0.037,-0.95356 -0.0609,-0.25214 -0.17198,-0.93583 0.12436,-0.96837 0.28839,0.44423 0.61383,0.81492 1.00277,0.94985 0.10848,0.25824 0.26723,0.44212 0.49212,0.21934 0.29634,0.21431 0.48948,1.02209 0.74084,0.38762 0.35189,0.22039 0.6297,0.34369 0.79375,0.72125 0.0556,0.32914 0.46302,0.10927 0.39687,0.60378 0.0847,0.28099 0.37571,0.59849 0.46038,0.13229 0.21166,-0.53181 0.57943,-0.81809 0.82285,-0.11827 0.37835,0.20003 0.381,0.70459 0.59267,0.94192 0.30956,0.19526 0.13758,0.82073 0.23018,1.1594 0.0397,0.14578 0.37836,0.37915 0.0714,0.65775 -0.23283,0.55933 -0.77787,0.72893 -1.25677,1.01653 0.66675,0.17278 1.35202,0.27808 2.01877,0.44159 0.49742,0.34819 -0.67204,0.0405 -0.89958,0.005 -0.46831,-0.0929 -0.94456,-0.22066 -1.41552,-0.24738 0.50535,0.37967 0.79375,0.95593 1.01071,1.53484 -0.10848,0.40905 0.0291,0.85249 -0.12171,1.25254 -0.037,0.0661 -0.0661,0.14023 -0.12436,0.19156 z"
       id="path17"
       inkscape:connector-curvature="0" />
    <path
       style="fill:#651100;fill-opacity:1;stroke-width:0.26458332"
       d="m 179.76025,63.995292 c -0.23548,0.197856 -0.56621,-0.271542 -0.4789,0.277813 -0.16404,0.323321 -0.2831,0.891593 -0.67469,0.846534 -0.2831,0.458259 -0.66145,0.396187 -0.97366,0.814335 -0.59796,0.426455 -0.44979,-0.470191 -0.56621,-0.793724 -0.16669,-0.09059 -0.36248,0.783749 -0.73554,0.67609 -0.28575,0.508159 -0.87313,0.6096 -1.38113,0.87757 -0.26723,-0.114565 -0.0714,-0.906674 -0.45243,-0.308478 -0.36778,0.08284 -0.64559,0.299535 -1.0848,0.442331 -0.0741,-0.681964 -0.73025,0.13925 -1.02923,-0.05895 -0.35454,0.125544 -0.80697,0.619019 -1.16416,0.419205 0.29633,-0.487071 0.26194,-0.847751 0.48683,-1.313127 -0.37835,-0.149674 0.16669,-0.531045 0.13229,-0.786183 0.23548,-0.261461 0.43657,-0.470508 0.11642,-0.722735 0.33337,-0.396161 0.77258,-0.589466 1.14035,-0.89117 0.4789,-0.212619 0.47625,-0.537289 -0.0979,-0.389758 -0.63765,0.115703 -0.96044,0.07747 -1.63248,0.170313 -0.29633,-0.0558 0,-0.515382 -0.46302,-0.326496 -0.22754,-0.008 -0.58473,0.04167 -0.49742,-0.297683 -0.31221,-0.137742 -0.9816,-0.09967 -1.00542,-0.496094 0.28575,-0.275801 0.72232,-0.632909 0.0847,-0.741785 -0.24077,-0.221827 -0.94192,-0.03956 -0.54769,-0.569225 0.1323,-0.310118 -0.82814,-0.128402 -0.48418,-0.60669 -0.35719,-0.01929 -0.55827,-0.184891 -0.71173,-0.373327 -0.40746,-0.07903 -0.74348,-0.377031 -1.20386,-0.390498 -0.8255,-0.269478 0.66411,-0.576554 0.98954,-0.422328 0.43657,0.03551 0.77259,-0.144754 1.16946,-0.02117 -0.33866,-0.519509 0.69321,-0.232039 0.65088,-0.615818 0.37306,0.07591 -0.0159,-0.697521 0.55562,-0.49096 0.19315,-0.117079 0.45509,0.128561 0.62177,-0.09874 0.3175,0.187431 0.65352,0.181848 0.45244,-0.278686 -0.16669,-0.770995 0.81227,0.02556 0.97102,-0.279929 0.44186,0.282152 0.91281,0.379677 1.34144,0.631349 0.2196,-0.132318 0.73554,0.48424 0.85196,0.258286 -0.11377,-0.487283 -0.53975,-0.761021 -0.70115,-1.19245 -0.1561,-0.200078 -0.20637,-0.574226 0.1614,-0.523135 0.0635,-0.395181 -0.36777,-0.763058 -0.082,-0.991552 -0.0952,-0.253444 -0.29634,-0.947182 0.008,-1.018699 0.35455,0.423572 0.73819,0.765969 1.15623,0.856377 0.14552,0.253444 0.33338,0.423624 0.53975,0.164386 0.33338,0.184282 0.635,0.996077 0.81492,0.307393 0.39158,0.18362 0.69585,0.275669 0.91281,0.645927 0.10054,0.333666 0.49213,0.05421 0.48684,0.574543 0.12435,0.280114 0.46566,0.571897 0.49212,0.07877 0.15346,-0.577427 0.49742,-0.920776 0.83873,-0.227224 0.41804,0.159015 0.48419,0.681143 0.7329,0.900192 0.3466,0.162639 0.24606,0.83222 0.38629,1.170755 0.0582,0.146103 0.43921,0.344752 0.1561,0.671883 -0.16933,0.608912 -0.71173,0.853254 -1.16946,1.211871 0.71173,0.09427 1.4314,0.116416 2.14577,0.200924 0.55828,0.297418 -0.69056,0.127185 -0.93397,0.119433 -0.49478,-0.03678 -1.00278,-0.10877 -1.49755,-0.07636 0.57415,0.328798 0.94457,0.888789 1.24355,1.460527 -0.0609,0.437303 0.13758,0.87884 0.0344,1.312042 -0.0318,0.07329 -0.0529,0.153538 -0.10583,0.214127 z"
       id="path18"
       inkscape:connector-curvature="0" />
    <path
       style="fill:#4b6b00;fill-opacity:1;stroke-width:0.26458332"
       d="m 71.582437,81.972963 c 0.35163,0.111389 0.0873,0.74877 0.58923,0.306916 0.43286,-0.04233 1.0877,-0.284691 1.29275,0.140759 0.6477,-0.0063 0.82841,0.4191 1.45415,0.468047 0.8173,0.333375 -0.18917,0.758561 -0.44423,1.083205 0.0151,0.227277 1.02976,-0.134673 1.15993,0.313531 0.69903,-0.03731 1.18057,0.496094 1.77827,0.838729 0.0558,0.346075 -0.87445,0.656167 -0.022,0.659342 0.31989,0.319352 0.71914,0.46355 1.14618,0.817562 -0.64585,0.512498 0.61039,0.652463 0.60113,1.083469 0.3556,0.280194 1.1475,0.42254 1.1729,0.912283 -0.68474,0.0127 -1.02896,0.2794 -1.6465,0.34925 0.091,0.480748 -0.64664,0.171715 -0.88265,0.372534 -0.41778,-0.07302 -0.75909,-0.142346 -0.80989,0.344223 -0.61701,-0.0844 -1.09432,-0.404813 -1.63804,-0.585788 -0.52361,-0.350044 -0.85195,-0.139171 -0.33231,0.351102 0.52652,0.572294 0.69453,0.923925 1.22131,1.548077 0.13282,0.336021 -0.52361,0.331523 -0.0339,0.681302 0.13811,0.236009 0.41725,0.565679 0.0169,0.695854 0.0595,0.404284 0.52917,1.061244 0.14155,1.340115 -0.46328,-0.112712 -1.10675,-0.327025 -0.80751,0.391054 -0.0714,0.386027 0.56489,0.982663 -0.22621,0.922338 -0.40164,0.06271 0.39978,0.921279 -0.30719,0.87921 0.21088,0.376767 0.17145,0.687123 0.0791,0.964671 0.18151,0.464873 0.0945,0.997479 0.37651,1.473994 0.25532,1.009914 -1.01336,-0.306123 -1.06416,-0.733425 -0.245,-0.467519 -0.64452,-0.693738 -0.77417,-1.176602 -0.30983,0.678127 -0.68077,-0.554832 -1.04378,-0.265907 -0.16192,-0.426773 -0.69771,0.465402 -0.8546,-0.24712 -0.24395,-0.122503 -0.16272,-0.546894 -0.50033,-0.569384 -0.0124,-0.441589 -0.23548,-0.781579 -0.57309,-0.279929 -0.6768,0.66384 -0.49556,-0.84111 -0.90911,-0.808037 0.004,-0.628915 -0.19949,-1.169459 -0.21987,-1.767946 -0.27463,-0.136525 0.0201,-1.05754 -0.28442,-1.030817 -0.42307,0.427302 -0.42704,1.036373 -0.76147,1.477963 -0.10293,0.287337 -0.45085,0.578643 -0.6358,0.171185 -0.44185,0.189706 -0.53922,0.863335 -0.95356,0.722048 -0.19685,0.258498 -0.77231,0.908844 -1.04034,0.645848 0.20294,-0.63209 0.30401,-1.241954 0.12753,-1.724819 0.16378,-0.310621 0.21617,-0.610658 -0.17939,-0.653256 -0.027,-0.4572 0.60405,-1.285346 -0.21193,-1.026584 -0.0648,-0.515408 -0.16668,-0.883972 0.0699,-1.342495 0.27491,-0.315648 -0.26167,-0.535782 0.27094,-0.863865 0.20505,-0.305594 0.28204,-0.840317 -0.23681,-0.551392 -0.68421,0.21643 -1.25491,0.08625 -0.76887,-0.705379 -0.1069,-0.526256 0.38073,-0.929481 0.44423,-1.321858 -0.0577,-0.456936 0.68712,-0.785283 0.94086,-1.145117 0.11112,-0.153194 0.0691,-0.666485 0.58235,-0.59055 0.72813,-0.217487 1.32371,0.174625 1.98305,0.410898 -0.36142,-0.783431 -0.80195,-1.53035 -1.17396,-2.308754 -0.0566,-0.75856 0.57256,0.61939 0.71993,0.86995 0.28179,0.528373 0.53473,1.090348 0.88451,1.570567 -0.0339,-0.792957 0.29686,-1.529027 0.68606,-2.199746 0.48313,-0.21934 0.80381,-0.705379 1.31101,-0.877623 0.0945,-0.01561 0.18918,-0.04604 0.28575,-0.02963 z"
       id="path22"
       inkscape:connector-curvature="0" />
    <path
       style="fill:#147300;fill-opacity:1;stroke-width:0.26458332"
       d="m 141.82429,73.041688 c 0.23019,0.401637 -0.55563,0.762264 0.28046,0.783431 0.43391,0.329406 1.24089,0.663839 1.06891,1.228989 0.60061,0.545042 0.40482,1.089555 0.93663,1.666875 0.46831,1.001713 -0.81756,0.536046 -1.32821,0.617273 -0.17992,0.221457 1.05833,0.752211 0.79904,1.274763 0.67204,0.560387 0.66146,1.459971 0.91811,2.283089 -0.24342,0.365655 -1.35996,-0.141023 -0.57944,0.587111 0.0212,0.565414 0.26458,1.037431 0.35719,1.726141 -1.02923,-0.07884 0.005,1.118394 -0.37042,1.506538 0.0873,0.559858 0.69585,1.364456 0.30163,1.835944 -0.6403,-0.570971 -1.18269,-0.618861 -1.80975,-1.080294 -0.32544,0.519377 -0.74084,-0.392377 -1.12713,-0.408517 -0.32279,-0.422275 -0.57679,-0.776287 -1.03717,-0.372798 -0.49477,-0.602191 -0.66145,-1.302808 -1.00541,-1.931458 -0.18521,-0.767292 -0.66411,-0.852487 -0.6059,0.03969 -0.003,0.973931 -0.14817,1.439597 -0.19579,2.461154 -0.1614,0.421746 -0.762,-0.141023 -0.60854,0.5969 -0.0741,0.334168 -0.0979,0.874712 -0.57679,0.653521 -0.2884,0.42201 -0.41805,1.425045 -1.01071,1.351491 -0.33073,-0.497681 -0.73819,-1.241689 -1.07421,-0.327554 -0.39423,0.293952 -0.3175,1.382977 -0.99219,0.654579 -0.42333,-0.283898 -0.41804,1.186392 -1.02923,0.546365 -0.127,0.525462 -0.42862,0.777081 -0.74877,0.953294 -0.23019,0.581554 -0.762,0.996685 -0.90752,1.674547 -0.62442,1.144853 -0.67204,-1.143529 -0.35454,-1.579297 0.17198,-0.637646 -0.003,-1.185598 0.29104,-1.739107 -0.86254,0.35904 -0.15346,-1.08876 -0.73289,-1.132152 0.21431,-0.52996 -1.03717,-0.166423 -0.57415,-0.954087 -0.12171,-0.320146 0.31485,-0.640821 0.0238,-0.948796 0.36248,-0.41619 0.44715,-0.918104 -0.28839,-0.744802 -1.18798,0.0344 0.25929,-1.194065 -0.14817,-1.515534 0.53975,-0.574675 0.81227,-1.243806 1.30175,-1.811072 -0.13494,-0.35904 0.9181,-0.954353 0.61648,-1.188773 -0.75142,0.03254 -1.27529,0.588433 -1.95792,0.709877 -0.33866,0.176212 -0.90487,0.147902 -0.7276,-0.383646 -0.56886,-0.201613 -1.23031,0.334169 -1.49225,-0.147902 -0.39952,0.07011 -1.48167,0.1778 -1.50548,-0.291836 0.72496,-0.407987 1.33614,-0.882385 1.58485,-1.47611 0.4154,-0.14605 0.71967,-0.377031 0.39159,-0.752475 0.36512,-0.443177 1.64835,-0.667015 0.67998,-1.123421 0.37835,-0.528637 0.59795,-0.953823 1.20385,-1.173692 0.52123,-0.05609 0.21696,-0.714639 0.98425,-0.563033 0.44979,-0.106362 0.97367,-0.532077 0.25135,-0.70776 -0.81227,-0.383382 -1.22502,-0.988748 -0.10583,-1.302279 0.34925,-0.574411 1.14035,-0.529961 1.53458,-0.836348 0.33338,-0.468842 1.29646,-0.13679 1.83621,-0.251619 0.23284,-0.04604 0.63236,-0.553244 1.03717,-0.04683 0.8546,0.419629 1.06892,1.286404 1.47373,2.064279 0.33337,-1.026848 0.56356,-2.087827 0.88635,-3.119438 0.59267,-0.744802 -0.003,1.056217 -0.0794,1.411817 -0.1905,0.724694 -0.43657,1.456267 -0.52388,2.194983 0.64294,-0.757237 1.57427,-1.151996 2.50031,-1.436952 0.63236,0.209815 1.3388,0.03598 1.95263,0.309034 0.0979,0.06614 0.21167,0.118797 0.28575,0.2159 z"
       id="path28"
       inkscape:connector-curvature="0" />
    <path
       style="fill:#733500;fill-opacity:1;stroke-width:0.26458332"
       d="m 51.401877,133.04601 c 0.091,0.45508 -0.77206,0.55086 0.0196,0.83555 0.30956,0.45112 0.97419,1.02526 0.62997,1.50945 0.40031,0.70935 0.0415,1.16681 0.36724,1.88569 0.12912,1.10252 -0.95012,0.25241 -1.46235,0.16854 -0.24157,0.15451 0.77338,1.05224 0.35851,1.4679 0.46567,0.74745 0.17066,1.60153 0.1561,2.46804 -0.34713,0.27173 -1.25359,-0.56489 -0.73924,0.37624 -0.15769,0.5461 -0.0741,1.07341 -0.20479,1.75895 -0.95673,-0.40032 -0.34793,1.06838 -0.82841,1.32 -0.0926,0.56198 0.23125,1.52056 -0.29263,1.846 -0.42942,-0.74665 -0.93239,-0.96388 -1.3843,-1.60179 -0.4744,0.39238 -0.58182,-0.60801 -0.94615,-0.74586 -0.17357,-0.50456 -0.30427,-0.92234 -0.87127,-0.68315 -0.28152,-0.73052 -0.21855,-1.45124 -0.34925,-2.1598 0.0677,-0.78951 -0.36407,-1.02288 -0.58844,-0.15293 -0.31088,0.92763 -0.5961,1.3261 -0.96387,2.28521 -0.28919,0.35057 -0.68289,-0.37518 -0.77073,0.3765 -0.17622,0.29528 -0.36989,0.80301 -0.75645,0.44106 -0.40878,0.31115 -0.84746,1.22741 -1.38985,0.9697 -0.15743,-0.57891 -0.31195,-1.41737 -0.92128,-0.65167 -0.46858,0.15558 -0.73898,1.21867 -1.15332,0.31062 -0.31274,-0.40402 -0.77179,0.99986 -1.15464,0.19553 -0.28708,0.46117 -0.65273,0.60616 -1.01468,0.67284 -0.40164,0.48233 -1.04114,0.70987 -1.39488,1.30995 -0.95727,0.89455 -0.27808,-1.30228 0.16166,-1.61766 0.36618,-0.55378 0.37279,-1.1311 0.82603,-1.56687 -0.93531,0.0704 0.19764,-1.08691 -0.34105,-1.31127 0.37174,-0.43762 -0.93636,-0.48604 -0.24659,-1.09141 -0.0132,-0.34316 0.50323,-0.51117 0.32332,-0.89694 0.47863,-0.28178 0.71755,-0.73369 -0.04,-0.80115 -1.14221,-0.34211 0.62548,-1.05649 0.33814,-1.49199 0.6948,-0.37809 1.16681,-0.92975 1.81372,-1.31577 -0.0161,-0.38524 1.17687,-0.61992 0.96255,-0.93927 -0.72707,-0.20638 -1.4007,0.15901 -2.08994,0.059 -0.37915,0.0609 -0.91122,-0.14526 -0.57467,-0.59637 -0.47758,-0.37148 -1.27847,-0.0699 -1.37425,-0.61198 -0.40455,-0.0598 -1.47029,-0.29872 -1.34329,-0.75354 0.81941,-0.1606 1.55284,-0.41936 1.97723,-0.90725 0.44186,-0.008 0.80407,-0.13256 0.61066,-0.59426 0.48736,-0.30744 1.78223,-0.11509 1.00198,-0.85672 0.52863,-0.38444 0.87233,-0.72019 1.52109,-0.73819 0.51461,0.11113 0.43127,-0.61356 1.11601,-0.22621 0.46117,0.0402 1.0967,-0.19976 0.46355,-0.59532 -0.65379,-0.6223 -0.85672,-1.33006 0.31009,-1.27555 0.51488,-0.43709 1.25518,-0.14499 1.72588,-0.31327 0.46831,-0.34105 1.2819,0.27993 1.83277,0.34078 0.23601,0.0294 0.77576,-0.32834 1.00356,0.28284 0.6821,0.67019 0.61172,1.56422 0.75195,2.43391 0.64346,-0.87366 1.19856,-1.81266 1.83012,-2.69505 0.80089,-0.52282 -0.3347,1.00674 -0.52123,1.32133 -0.4109,0.63103 -0.8763,1.25095 -1.19274,1.92775 0.85275,-0.51884 1.86452,-0.60113 2.83951,-0.57996 0.53499,0.39925 1.26497,0.4572 1.76292,0.91096 0.0743,0.0947 0.16536,0.18071 0.20611,0.29686 z"
       id="path29"
       inkscape:connector-curvature="0" />
    <path
       style="fill:#791200;fill-opacity:1;stroke-width:0.26458332"
       d="m 80.190127,114.6744 c 0.34369,0.41461 -0.48419,0.98769 0.48022,0.84217 0.56462,0.28972 1.55945,0.50933 1.47479,1.19327 0.79957,0.50324 0.68527,1.16787 1.4142,1.72191 0.73924,1.0541 -0.8308,0.78131 -1.39965,0.9779 -0.1614,0.29077 1.36895,0.64796 1.17501,1.30069 0.88689,0.50615 1.05649,1.54014 1.51924,2.43258 -0.20479,0.46884 -1.59094,0.1143 -0.54742,0.79137 0.13996,0.64426 0.5162,1.13638 0.76015,1.90791 -1.19671,0.11853 0.23389,1.28191 -0.11774,1.80366 0.2151,0.62442 1.07394,1.42426 0.71861,2.04497 -0.84985,-0.5252 -1.48273,-0.46964 -2.29553,-0.8718 -0.26776,0.66198 -0.92869,-0.29978 -1.37663,-0.23972 -0.45508,-0.4191 -0.81888,-0.77364 -1.2655,-0.21722 -0.69003,-0.59028 -1.02288,-1.36049 -1.54649,-2.01163 -0.36618,-0.84296 -0.9353,-0.84322 -0.68474,0.16828 0.19367,1.11786 0.12224,1.68169 0.27543,2.86332 -0.10213,0.517 -0.90355,-0.007 -0.57891,0.80883 -0.0172,0.39846 0.0648,1.02341 -0.52916,0.86704 -0.2458,0.54266 -0.18865,1.71953 -0.88398,1.75551 -0.47942,-0.50403 -1.0996,-1.2745 -1.29937,-0.15769 -0.39237,0.41725 -0.0828,1.65126 -1.00594,0.95276 -0.54187,-0.24024 -0.2368,1.44569 -1.07051,0.83582 -0.0389,0.62865 -0.33205,0.97843 -0.66463,1.24566 -0.14446,0.71385 -0.67151,1.29831 -0.70167,2.10555 -0.48419,1.4404 -1.00145,-1.17554 -0.72655,-1.7399 0.0685,-0.76676 -0.24289,-1.35969 -0.0206,-2.05422 -0.91572,0.58711 -0.39687,-1.21814 -1.0705,-1.15014 0.13838,-0.65167 -1.22317,0.0198 -0.85302,-0.97817 -0.20267,-0.3429 0.23178,-0.79904 -0.1643,-1.09326 0.33311,-0.55139 0.32808,-1.14458 -0.48234,-0.79586 -1.35414,0.28019 0.0564,-1.42293 -0.47704,-1.70868 0.50085,-0.76888 0.67865,-1.592 1.12606,-2.34236 -0.22913,-0.38444 0.85937,-1.28138 0.46488,-1.48907 -0.85593,0.19023 -1.34197,0.93398 -2.1008,1.21179 -0.35295,0.2712 -1.00965,0.35375 -0.91492,-0.2921 -0.69189,-0.11589 -1.34303,0.63341 -1.73964,0.13308 -0.44582,0.16193 -1.66502,0.50509 -1.7862,-0.0291 0.74771,-0.61516 1.35361,-1.28349 1.51791,-2.01533 0.44635,-0.25162 0.74745,-0.57838 0.29581,-0.94271 0.32782,-0.58235 1.75551,-1.09988 0.55059,-1.4269 0.32756,-0.68316 0.49319,-1.2155 1.14539,-1.59147 0.58658,-0.16986 0.10213,-0.8636 1.01441,-0.84561 0.49265,-0.21325 1.00912,-0.8083 0.14499,-0.86334 -1.01044,-0.27463 -1.60734,-0.88502 -0.38656,-1.47213 0.2847,-0.73025 1.20121,-0.83979 1.58883,-1.2708 0.28998,-0.60616 1.46261,-0.42095 2.05819,-0.66225 0.25691,-0.10001 0.61066,-0.76279 1.18031,-0.26432 1.06521,0.30798 1.4859,1.25916 2.1082,2.06931 0.17542,-1.24619 0.22436,-2.5101 0.38258,-3.75894 0.52944,-0.97472 0.21326,1.21206 0.19632,1.63592 -0.0714,0.87022 -0.20505,1.75948 -0.15504,2.62467 0.58446,-0.9996 1.57162,-1.64121 2.57836,-2.15662 0.76597,0.11245 1.54279,-0.23045 2.30108,-0.0418 0.12806,0.0556 0.26829,0.0931 0.37386,0.18918 z"
       id="path37"
       inkscape:connector-curvature="0" />
    <path
       style="fill:#7e0000;fill-opacity:1;stroke-width:0.26458332"
       d="m 88.331987,144.61607 c -0.0315,0.59637 -1.13797,0.44106 -0.24183,1.04802 0.24236,0.66119 0.88821,1.58882 0.30454,2.0828 0.27331,1.01203 -0.31988,1.46791 -0.14261,2.4683 -0.1905,1.41578 -1.26524,0.0119 -1.87722,-0.25586 -0.35031,0.11563 0.62891,1.5584 -0.0206,1.94469 0.34237,1.08003 -0.29766,2.05105 -0.59161,3.12685 -0.51964,0.22807 -1.38324,-1.10384 -1.04193,0.23336 -0.37068,0.63077 -0.43418,1.31498 -0.81571,2.12778 -1.06521,-0.80381 -0.7739,1.22132 -1.45335,1.38192 -0.29449,0.67125 -0.19606,1.96982 -0.95277,2.20847 -0.29792,-1.06785 -0.85566,-1.49886 -1.21576,-2.4384 -0.71676,0.33841 -0.53181,-0.94323 -0.94218,-1.23137 -0.0558,-0.68421 -0.0855,-1.24698 -0.86863,-1.12924 -0.11827,-1.00065 0.18997,-1.87907 0.25268,-2.80405 0.33576,-0.96282 -0.12806,-1.39145 -0.68501,-0.37809 -0.68315,1.05754 -1.16575,1.46341 -1.92987,2.54212 -0.47228,0.34475 -0.73157,-0.68554 -1.08082,0.22383 -0.3138,0.31195 -0.71702,0.88318 -1.08373,0.30877 -0.60881,0.25771 -1.4478,1.26021 -2.04179,0.7665 -0.0119,-0.77205 0.0624,-1.8669 -0.94113,-1.10649 -0.63367,0.045 -1.30995,1.28429 -1.53696,0.0201 -0.26114,-0.60351 -1.28111,1.00065 -1.50204,-0.12409 -0.50483,0.48339 -1.007,0.54795 -1.47929,0.51567 -0.65484,0.47334 -1.52453,0.55325 -2.15661,1.18878 -1.4785,0.81015 0.0683,-1.71212 0.71702,-1.96559 0.63288,-0.57362 0.82523,-1.29143 1.52902,-1.69043 -1.18851,-0.21034 0.59267,-1.29196 -0.007,-1.74334 0.60299,-0.4273 -1.01256,-0.90434 0.0402,-1.43933 0.0929,-0.43206 0.79058,-0.47731 0.68871,-1.01547 0.6866,-0.19897 1.12898,-0.68633 0.20585,-1.01177 -1.31525,-0.79057 1.11654,-1.11786 0.89667,-1.75233 0.98716,-0.25003 1.75128,-0.7874 2.68076,-1.06257 0.10266,-0.48577 1.66502,-0.3982 1.49939,-0.86439 -0.84084,-0.48922 -1.79705,-0.24818 -2.62466,-0.59267 -0.49186,-0.0447 -1.08956,-0.47149 -0.52626,-0.92657 -0.47704,-0.61542 -1.57189,-0.49424 -1.51871,-1.20068 -0.48524,-0.20346 -1.73778,-0.84111 -1.43457,-1.36789 1.07262,0.0611 2.06957,-0.0281 2.75431,-0.50086 0.55325,0.13044 1.04458,0.0907 0.95065,-0.54637 0.70538,-0.22807 2.25901,0.42413 1.52241,-0.74903 0.78132,-0.31089 1.31683,-0.62018 2.13149,-0.43577 0.60642,0.30268 0.73316,-0.62759 1.46367,0.0736 0.56224,0.19712 1.43113,0.10055 0.76782,-0.59478 -0.61727,-0.98425 -0.64479,-1.93146 0.79269,-1.49146 0.78158,-0.381 1.61132,0.21934 2.25161,0.15928 0.69268,-0.27596 1.50945,0.75751 2.17673,1.00912 0.28469,0.11166 1.07182,-0.16271 1.16125,0.67231 0.63685,1.05278 0.26432,2.14498 0.16193,3.27396 1.08082,-0.88424 2.07195,-1.87802 3.1406,-2.77707 1.16523,-0.39661 -0.73819,1.14882 -1.07077,1.4814 -0.71331,0.6559 -1.49119,1.28058 -2.10158,2.02353 1.22872,-0.37518 2.51645,-0.15557 3.72533,0.18177 0.53975,0.66808 1.4314,0.97314 1.90765,1.6973 0.0627,0.14182 0.14869,0.27808 0.16245,0.43577 z"
       id="path40"
       inkscape:connector-curvature="0" />
    <path
       style="fill:#866b00;fill-opacity:1;stroke-width:0.26458332"
       d="m 71.142437,79.645952 c -0.46805,-0.493712 0.52758,-1.285875 -0.67628,-1.021292 -0.73607,-0.318293 -2.00871,-0.511968 -1.95924,-1.381389 -1.05039,-0.567796 -0.96176,-1.415256 -1.92722,-2.052902 -1.02023,-1.267354 0.98213,-1.054629 1.68301,-1.350169 0.17913,-0.380206 -1.78038,-0.702204 -1.59041,-1.541462 -1.16072,-0.564092 -1.46103,-1.853936 -2.11904,-2.940315 0.21881,-0.608092 1.99628,-0.277336 0.62388,-1.043649 -0.23045,-0.800629 -0.74586,-1.389592 -1.11813,-2.341827 1.49887,-0.249925 -0.40216,-1.596999 -0.002,-2.284095 -0.32358,-0.769355 -1.47346,-1.706086 -1.07712,-2.518516 1.11549,0.591026 1.90871,0.468127 2.96731,0.907177 0.28231,-0.857118 1.19618,0.300302 1.75577,0.18714 0.60907,0.490431 1.09723,0.906939 1.61396,0.167746 0.91943,0.686752 1.40335,1.629965 2.11825,2.407205 0.53208,1.032166 1.2499,0.984832 0.84932,-0.269557 -0.33788,-1.393323 -0.29501,-2.110158 -0.58711,-3.587221 0.0855,-0.660479 1.14009,-0.06699 0.66251,-1.068308 -0.0116,-0.50382 -0.16748,-1.284896 0.59452,-1.137444 0.26458,-0.704929 0.0939,-2.183924 0.96758,-2.287482 0.64691,0.595392 1.49305,1.515084 1.6518,0.08993 0.45958,-0.558879 -0.0341,-2.088859 1.1885,-1.285425 0.70327,0.25744 0.17754,-1.842691 1.27979,-1.143582 -0.003,-0.79592 0.33682,-1.261269 0.73396,-1.626235 0.12224,-0.911993 0.73819,-1.69307 0.70855,-2.713541 0.48975,-1.856661 1.36102,1.398587 1.06151,2.133176 -0.022,0.97253 0.42016,1.694181 0.19791,2.588314 1.10543,-0.816821 0.60246,1.502701 1.44621,1.360752 -0.12012,0.833173 1.54067,-0.127396 1.15729,1.161733 0.28416,0.415422 -0.22543,1.027086 0.29871,1.364932 -0.37385,0.723107 -0.31803,1.470502 0.67469,0.96319 1.68407,-0.466725 0.0482,1.79869 0.74454,2.11455 -0.56727,1.011316 -0.72231,2.064041 -1.2237,3.047629 0.32068,0.465508 -0.97658,1.687592 -0.4617,1.916324 1.06336,-0.311256 1.61396,-1.289923 2.54741,-1.703652 0.42254,-0.371422 1.24354,-0.530595 1.17819,0.291624 0.88212,0.08829 1.64042,-0.910987 2.18255,-0.313214 0.54822,-0.241379 2.05687,-0.776367 2.25425,-0.112871 -0.89112,0.838253 -1.59914,1.731777 -1.74519,2.668111 -0.54187,0.354727 -0.89403,0.791872 -0.29395,1.213591 -0.36487,0.761683 -2.1217,1.533472 -0.57494,1.844887 -0.3556,0.889264 -0.52018,1.574271 -1.31101,2.102643 -0.72523,0.263525 -0.0564,1.097492 -1.20809,1.151203 -0.60378,0.310091 -1.20518,1.103577 -0.11086,1.100666 1.29698,0.261673 2.10105,0.981604 0.61066,1.824038 -0.29793,0.944298 -1.4441,1.159139 -1.8968,1.735402 -0.31512,0.788194 -1.80896,0.652727 -2.53974,1.007004 -0.31565,0.147637 -0.70617,1.012825 -1.46605,0.432065 -1.36896,-0.299244 -1.97909,-1.463411 -2.83157,-2.432844 -0.11695,1.585912 -0.073,3.183996 -0.16802,4.771496 -0.58578,1.273439 -0.37015,-1.510242 -0.38417,-2.046023 0.0172,-1.103313 0.11112,-2.235729 -0.0243,-3.322373 -0.65326,1.309158 -1.84441,2.200804 -3.07049,2.935023 -0.97526,-0.07779 -1.92617,0.419629 -2.89772,0.245268 -0.16616,-0.05953 -0.34634,-0.09499 -0.48736,-0.207433 z"
       id="path43"
       inkscape:connector-curvature="0" />
    <path
       style="fill:#198a00;fill-opacity:1;stroke-width:0.26458332"
       d="m 102.38285,156.41083 c 0.40746,-0.58129 1.42611,0.27544 0.90752,-0.90355 0.17198,-0.81994 0.10848,-2.16376 1.01071,-2.29261 0.36513,-1.19327 1.25148,-1.27768 1.70392,-2.39819 1.09008,-1.30704 1.28323,0.78873 1.73302,1.44569 0.42598,0.10504 0.35189,-1.9693 1.24883,-1.9476 0.33867,-1.30572 1.59809,-1.8796 2.57704,-2.77813 0.66675,0.0987 0.69586,1.98808 1.19857,0.42387 0.77258,-0.40138 1.27,-1.05093 2.16693,-1.62904 0.56621,1.48431 1.55311,-0.74163 2.34157,-0.47387 0.71966,-0.49027 1.44198,-1.86161 2.35743,-1.62348 -0.3757,1.26497 -0.0847,2.05263 -0.3175,3.22765 0.93663,0.11245 -0.0608,1.28772 0.17198,1.83779 -0.37835,0.72496 -0.70379,1.31128 0.15875,1.68831 -0.51329,1.08347 -1.37848,1.77403 -2.02935,2.667 -0.94721,0.7583 -0.74877,1.48405 0.45244,0.81465 1.35731,-0.63368 2.10079,-0.73766 3.556,-1.3417 0.6932,-0.049 0.30162,1.15411 1.23031,0.45826 0.51329,-0.11589 1.28058,-0.43683 1.28852,0.37438 0.77523,0.12542 2.2569,-0.35454 2.54265,0.51938 -0.47625,0.78555 -1.24355,1.84256 0.2487,1.7108 0.66675,0.35586 2.13255,-0.46567 1.56369,0.9525 -0.11906,0.7739 1.92352,-0.19818 1.43404,1.07553 0.81492,-0.16801 1.36261,0.0849 1.81769,0.41619 0.96044,-0.063 1.88913,0.40693 2.92629,0.16616 2.00554,0.11853 -1.15094,1.68327 -1.96585,1.52796 -1.00013,0.17807 -1.64836,0.78 -2.61144,0.73687 1.06627,0.96414 -1.41552,0.92763 -1.09537,1.76239 -0.87842,0.0492 0.44979,1.55257 -0.9525,1.42584 -0.36513,0.37676 -1.09803,-0.0191 -1.33615,0.58764 -0.81756,-0.23389 -1.57163,-0.0222 -0.84667,0.89006 0.8255,1.6293 -1.83356,0.42042 -2.01348,1.19935 -1.15358,-0.37253 -2.26483,-0.31432 -3.37608,-0.62494 -0.4101,0.42492 -1.92881,-0.6522 -2.05846,-0.0775 0.53975,1.02553 1.65629,1.38748 2.27277,2.25849 0.46567,0.35639 0.79904,1.16496 -0.0556,1.26735 0.09,0.92234 1.27,1.49304 0.76994,2.1717 0.35983,0.51197 1.21973,1.94733 0.58208,2.28653 -1.04246,-0.74004 -2.10608,-1.28111 -3.09562,-1.23746 -0.47361,-0.48207 -0.99484,-0.75274 -1.3044,-0.0511 -0.8546,-0.21643 -2.00819,-1.85711 -2.00819,-0.20796 -0.98425,-0.18098 -1.71979,-0.20823 -2.42358,-0.90964 -0.42069,-0.68871 -1.13771,0.1688 -1.4314,-1.00013 -0.44185,-0.55456 -1.37848,-1.007 -1.14829,0.11378 -0.003,1.38271 -0.57414,2.35505 -1.7436,1.00197 -1.02923,-0.11033 -1.48696,-1.24063 -2.16959,-1.58538 -0.87312,-0.16007 -1.04245,-1.719 -1.55575,-2.39448 -0.21695,-0.29316 -1.18533,-0.51461 -0.74612,-1.41314 0.0238,-1.4642 1.09008,-2.32966 1.90765,-3.40334 -1.64836,0.2077 -3.27555,0.58262 -4.9239,0.8128 -1.423463,-0.3376 1.47108,-0.69109 2.01877,-0.81597 1.13242,-0.21008 2.31246,-0.34766 3.3999,-0.71041 -1.47638,-0.39952 -2.6379,-1.43563 -3.64067,-2.54053 -0.12171,-1.0152 -0.82815,-1.887 -0.85196,-2.91861 0.0291,-0.1823 0.0265,-0.37439 0.11377,-0.54214 z"
       id="path45"
       inkscape:connector-curvature="0" />
    <path
       style="fill:#8a8200;fill-opacity:1;stroke-width:0.26458332"
       d="m 175.07712,44.086568 c -0.40216,0.587703 -1.43139,-0.255445 -0.89429,0.917289 -0.16404,0.823211 -0.0794,2.167453 -0.9816,2.309191 -0.34661,1.199541 -1.23296,1.296484 -1.67217,2.424588 -1.07156,1.323764 -1.29646,-0.771234 -1.75419,-1.422585 -0.42598,-0.09901 -0.32279,1.976067 -1.22502,1.96723 -0.32014,1.311725 -1.57162,1.904021 -2.53735,2.817179 -0.6694,-0.08935 -0.72496,-1.980117 -1.20386,-0.407221 -0.76993,0.412724 -1.25677,1.069896 -2.14841,1.661293 -0.58738,-1.477778 -1.54517,0.764355 -2.33627,0.507338 -0.71438,0.500909 -1.41817,1.883913 -2.33627,1.658356 0.35718,-1.271429 0.0556,-2.055601 0.26987,-3.235167 -0.93927,-0.09919 0.0423,-1.289686 -0.19579,-1.837082 0.36777,-0.731097 0.68527,-1.32252 -0.18521,-1.687539 0.50006,-1.092015 1.35731,-1.795489 1.99231,-2.698485 0.93927,-0.772346 0.7329,-1.496007 -0.46302,-0.809017 -1.34937,0.653706 -2.09285,0.768112 -3.53748,1.393428 -0.69585,0.05871 -0.32014,-1.151043 -1.24089,-0.441245 -0.51065,0.123322 -1.27529,0.455268 -1.29382,-0.356447 -0.77787,-0.114776 -2.25425,0.386768 -2.55322,-0.484029 0.46566,-0.793141 1.21972,-1.861844 -0.27253,-1.708965 -0.67468,-0.346659 -2.12989,0.496531 -1.57691,-0.931246 0.10583,-0.776208 -1.92352,0.225738 -1.45256,-1.05614 -0.81492,0.179638 -1.36525,-0.06566 -1.82563,-0.3909 -0.96044,0.07655 -1.89442,-0.380654 -2.93158,-0.124783 -2.00819,-0.09051 1.12977,-1.701207 1.94733,-1.557319 0.99748,-0.192392 1.63777,-0.804087 2.6035,-0.774586 -1.08215,-0.949881 1.40229,-0.948426 1.07156,-1.779694 0.87842,-0.06157 -0.47096,-1.547548 0.93134,-1.440497 0.36248,-0.38235 1.10066,0.0035 1.33085,-0.607245 0.82021,0.222514 1.57427,2.6e-5 0.83608,-0.902865 -0.85195,-1.619064 1.82827,-0.446881 1.99761,-1.228936 1.15887,0.356579 2.27012,0.282442 3.38666,0.577638 0.40482,-0.43098 1.94205,0.625528 2.06111,0.04842 -0.55298,-1.018672 -1.67481,-1.365356 -2.30452,-2.228479 -0.47361,-0.349911 -0.81756,-1.154509 0.037,-1.269259 -0.10583,-0.921782 -1.29381,-1.476375 -0.80169,-2.162784 -0.36777,-0.507524 -1.24883,-1.932041 -0.61383,-2.28063 1.05304,0.726176 2.1246,1.252565 3.11414,1.194992 0.48155,0.475694 1.00807,0.739272 1.3044,0.03246 0.8599,0.204549 2.03729,1.83052 2.01613,0.17989 0.98689,0.167243 1.72243,0.183912 2.43945,0.876062 0.42863,0.683392 1.13507,-0.18505 1.44463,0.980943 0.44979,0.548825 1.39435,0.988404 1.14829,-0.130096 -0.0185,-1.384141 0.53975,-2.365561 1.73038,-1.027721 1.03187,0.09588 1.50547,1.220708 2.19604,1.556253 0.87577,0.147822 1.06627,1.70569 1.59014,2.374767 0.22225,0.290142 1.19327,0.498237 0.76729,1.403747 -0.005,1.466109 -1.06097,2.347489 -1.86266,3.43363 1.64835,-0.231219 3.27289,-0.629444 4.91596,-0.883232 1.43139,0.317712 -1.46315,0.712629 -2.00555,0.845344 -1.13241,0.226272 -2.31245,0.380682 -3.3946,0.759275 1.48431,0.37883 2.65906,1.399646 3.68035,2.491396 0.13759,1.014404 0.85725,1.876967 0.89165,2.909252 -0.0238,0.18302 -0.0212,0.375171 -0.10319,0.54423 z"
       id="path46"
       inkscape:connector-curvature="0" />
    <path
       style="fill:#268c00;fill-opacity:1;stroke-width:0.26458332"
       d="m 132.40512,122.95374 c -0.28046,0.68633 -1.51341,0.0537 -0.70908,1.12977 0.0132,0.87366 0.39158,2.22356 -0.49213,2.56514 -0.0926,1.29725 -0.97366,1.59014 -1.1721,2.83448 -0.79904,1.58194 -1.48696,-0.50112 -2.0955,-1.06415 -0.45773,-0.007 0.10054,2.08253 -0.81756,2.27065 -0.037,1.40547 -1.18269,2.28283 -1.96586,3.42371 -0.70114,0.0558 -1.1721,-1.85685 -1.31498,-0.15055 -0.6932,0.58843 -1.0451,1.36419 -1.82297,2.16165 -0.92075,-1.37584 -1.40494,1.11627 -2.26748,1.0279 -0.61648,0.66649 -1.03188,2.22832 -2.01613,2.20001 0.0873,-1.37266 -0.39158,-2.10476 -0.43127,-3.35253 -0.97631,0.10451 -0.23812,-1.32213 -0.60325,-1.82695 0.21431,-0.82444 0.40746,-1.49622 -0.55827,-1.67719 0.26987,-1.22079 0.98954,-2.12461 1.43933,-3.18347 0.78582,-0.99139 0.4154,-1.68275 -0.64823,-0.72178 -1.23295,0.96096 -1.9632,1.2401 -3.2967,2.19339 -0.69586,0.21193 -0.57944,-1.10146 -1.35996,-0.1778 -0.49477,0.23786 -1.19857,0.74322 -1.39436,-0.0791 -0.82021,0.0537 -2.20927,0.88741 -2.70668,0.0667 0.30162,-0.90964 0.83343,-2.16244 -0.65088,-1.67984 -0.762,-0.20532 -2.05846,0.97181 -1.80975,-0.60246 -0.0608,-0.81359 -1.90765,0.65114 -1.70921,-0.75671 -0.78846,0.36089 -1.40494,0.23178 -1.94469,0.002 -0.96043,0.28814 -2.01083,0.0275 -3.010953,0.51515 -2.06375,0.3474 0.77787,-1.97908 1.640413,-2.01163 0.97632,-0.41487 1.49225,-1.17766 2.47915,-1.35863 -1.30704,-0.73052 1.22237,-1.27291 0.70114,-2.04629 0.88107,-0.25532 -0.81756,-1.47214 0.635,-1.67058 0.28311,-0.46858 1.11919,-0.23733 1.21973,-0.90938 0.88636,0.0463 1.60338,-0.34475 0.65352,-1.10225 -1.21972,-1.46182 1.76478,-0.8554 1.76478,-1.6883 1.25677,0.10874 2.37331,-0.20982 3.57452,-0.15399 0.3175,-0.52758 2.11402,0.2114 2.10873,-0.40243 -0.78582,-0.91572 -2.00555,-1.02261 -2.83369,-1.76345 -0.55827,-0.25241 -1.08744,-0.99589 -0.24077,-1.30016 -0.30957,-0.91519 -1.64042,-1.2192 -1.29117,-2.02565 -0.48683,-0.43603 -1.69333,-1.69307 -1.12448,-2.18705 1.23296,0.50827 2.43681,0.80963 3.43165,0.5342 0.59531,0.37862 1.18798,0.53181 1.33614,-0.25294 0.92075,0.0198 2.4765,1.41684 2.09021,-0.25797 1.04246,-0.0463 1.79652,-0.19077 2.67494,0.35718 0.58737,0.6014 1.11654,-0.43682 1.68539,0.6821 0.57944,0.45985 1.63778,0.70062 1.143,-0.38444 -0.32279,-1.40467 0.0318,-2.52598 1.53723,-1.42505 1.06892,-0.12832 1.79917,0.91308 2.57175,1.10358 0.92605,-0.0415 1.4605,1.50231 2.14048,2.06851 0.2884,0.24712 1.32292,0.24607 1.08744,1.26101 0.3175,1.49331 -0.56356,2.62149 -1.143,3.90313 1.62719,-0.59637 3.19352,-1.35758 4.81277,-1.97617 1.52665,0.01 -1.3335,1.0459 -1.86002,1.30016 -1.10331,0.47837 -2.26748,0.89376 -3.28612,1.51606 1.59279,0.0606 3.0136,0.84243 4.29154,1.72984 0.36248,1.00278 1.28323,1.72324 1.54516,2.76596 0.0159,0.19156 0.0609,0.38656 0.0132,0.57679 z"
       id="path50"
       inkscape:connector-curvature="0" />
    <path
       style="fill:#739600;fill-opacity:1;stroke-width:0.26458332"
       d="m 85.578897,97.519085 c 0.63474,0.604573 -0.59399,1.689365 0.93742,1.269736 0.96837,0.360627 2.61858,0.525727 2.61249,1.647829 1.3888,0.66092 1.33112,1.75736 2.61515,2.51407 1.39673,1.56315 -1.19407,1.42187 -2.07619,1.84838 -0.20532,0.50085 2.33733,0.78607 2.14815,1.87854 1.53062,0.64876 2.00237,2.28864 2.921,3.64278 -0.24156,0.79719 -2.55032,0.48895 -0.73369,1.3843 0.34925,1.01494 1.05119,1.73858 1.59332,2.93926 -1.91214,0.42068 0.6231,2.02829 0.15399,2.93872 0.46699,0.96864 2.0074,2.09788 1.55231,3.16944 -1.47426,-0.68686 -2.48682,-0.47625 -3.87773,-0.97128 -0.30665,1.12157 -1.55919,-0.30718 -2.27171,-0.12462 -0.81598,-0.59082 -1.47162,-1.09432 -2.08757,-0.10927 -1.22846,-0.82286 -1.91346,-2.00449 -2.88475,-2.95725 -0.75274,-1.29302 -1.67322,-1.18454 -1.075,0.40296 0.52705,1.77032 0.51885,2.69557 0.99245,4.57676 -0.0661,0.85567 -1.46235,0.16166 -0.78184,1.41843 0.0484,0.64744 0.3003,1.64227 -0.68977,1.50284 -0.29369,0.92445 0.0236,2.81622 -1.09405,3.00725 -0.87154,-0.72337 -2.02116,-1.85076 -2.13096,-0.007 -0.55456,0.74956 0.18177,2.68552 -1.44436,1.73249 -0.92181,-0.28469 -0.10662,2.38257 -1.57109,1.55601 0.0572,1.02394 -0.35031,1.64518 -0.83688,2.14101 -0.0971,1.18137 -0.83794,2.22726 -0.73237,3.53827 -0.50773,2.42121 -1.84388,-1.70973 -1.50706,-2.67467 -0.0357,-1.2528 -0.6522,-2.15212 -0.42545,-3.31734 -1.36843,1.12421 -0.87472,-1.89363 -1.95078,-1.65524 0.0992,-1.08003 -1.97405,0.26591 -1.5658,-1.41816 -0.39317,-0.51594 0.22225,-1.33641 -0.47466,-1.73646 0.43338,-0.95515 0.31194,-1.91321 -0.9316,-1.19486 -2.13598,0.71173 -0.18098,-2.31114 -1.09776,-2.6715 0.66305,-1.3388 0.79296,-2.70352 1.37293,-4.00236 -0.44345,-0.57758 1.14511,-2.23598 0.46751,-2.49607 -1.34778,0.47069 -1.99151,1.76636 -3.16521,2.36034 -0.51911,0.50589 -1.56501,0.76491 -1.53511,-0.29738 -1.14088,-0.0553 -2.05052,1.28057 -2.78738,0.54715 -0.68977,0.34687 -2.59557,1.13506 -2.89349,0.29422 1.09141,-1.13744 1.94337,-2.33389 2.06931,-3.54833 0.67389,-0.49212 1.09802,-1.07791 0.29818,-1.58088 0.4191,-1.00409 2.62837,-2.11349 0.61781,-2.41194 0.39899,-1.16734 0.56515,-2.05978 1.54807,-2.79189 0.91573,-0.38708 0,-1.41605 1.47823,-1.5613 0.75618,-0.43868 1.4777,-1.4994 0.0699,-1.4232 -1.68619,-0.25109 -2.76807,-1.12421 -0.9062,-2.3069 0.32094,-1.23454 1.78171,-1.58697 2.32595,-2.35796 0.35322,-1.035319 2.28442,-0.959648 3.20146,-1.463679 0.39635,-0.210873 0.84164,-1.349904 1.85764,-0.652992 1.78118,0.294746 2.64319,1.752071 3.80418,2.943491 0.0455,-2.04867 -0.11668,-4.101572 -0.0995,-6.15077 0.66992,-1.677194 0.57653,1.918758 0.62971,2.607204 0.0508,1.420813 0.005,2.883956 0.25082,4.273286 0.75433,-1.72773 2.22779,-2.953544 3.75682,-3.979069 1.25995,0.03545 2.45057,-0.667544 3.71237,-0.507206 0.21775,0.06535 0.45191,0.09922 0.64082,0.23442 z"
       id="path55"
       inkscape:connector-curvature="0" />
    <path
       style="fill:#a91000;fill-opacity:1;stroke-width:0.26458332"
       d="m 171.49467,164.57224 c -0.9525,0.5596 -1.8415,-1.30783 -1.86531,0.69533 -0.77259,1.04881 -1.54781,2.99244 -2.90513,2.59477 -1.28587,1.45415 -2.59556,1.00303 -3.95816,2.29685 -2.38125,1.15014 -1.30969,-1.94231 -1.52136,-3.16045 -0.53446,-0.42307 -1.76477,2.5609 -3.02419,1.95183 -1.32027,1.63036 -3.47133,1.63221 -5.43189,2.27489 -0.88371,-0.56992 0.29369,-3.26232 -1.42346,-1.37107 -1.35467,0.0709 -2.4765,0.67045 -4.11956,0.91016 0.1561,-2.46512 -2.67759,0.0503 -3.61686,-0.83529 -1.33614,0.2294 -3.24379,1.70577 -4.38414,0.78026 1.34673,-1.54914 1.44198,-2.85036 2.52677,-4.36483 -1.25413,-0.76174 0.91546,-1.78356 0.94192,-2.71119 1.00012,-0.78396 1.83885,-1.40388 0.85725,-2.4937 1.4261,-1.20332 3.09562,-1.62295 4.59052,-2.46935 1.82827,-0.46329 2.01877,-1.61713 -0.11642,-1.44383 -2.32833,0.0233 -3.44752,-0.30824 -5.89492,-0.38841 -1.01335,-0.37756 0.31486,-1.82933 -1.44727,-1.44119 -0.80169,-0.16642 -2.0955,-0.2069 -1.58221,-1.3589 -1.01864,-0.67786 -3.4237,-0.95091 -3.2676,-2.37251 1.18269,-0.8054 2.94746,-1.80737 0.75142,-2.58181 -0.71702,-0.93345 -3.32052,-0.71358 -1.60073,-2.354 0.66675,-1.01891 -2.85221,-0.95805 -1.33879,-2.4466 -1.26207,-0.28654 -1.87325,-0.99668 -2.30453,-1.75921 -1.39964,-0.52838 -2.41035,-1.7907 -4.03754,-2.11852 -2.7596,-1.45759 2.71463,-1.64121 3.76767,-0.8972 1.53194,0.39211 2.83633,-0.0429 4.16983,0.63738 -0.88635,-2.05026 2.60086,-0.40191 2.68552,-1.78965 1.2753,0.49583 0.36513,-2.48628 2.26484,-1.40573 0.762,-0.29712 1.54516,0.73449 2.27012,0.0286 1.00806,0.85751 2.21192,1.04352 1.77536,-0.71438 -0.12171,-2.83765 2.86543,0.58447 3.6195,-0.40216 1.39435,1.26973 3.00302,1.90209 4.3762,3.05699 0.85461,-0.33681 2.31246,2.16588 2.86544,1.43484 -0.10319,-1.79785 -1.44991,-3.02922 -1.76212,-4.65905 -0.43392,-0.80513 -0.38365,-2.16376 0.89429,-1.75789 0.46302,-1.36446 -0.83873,-2.93211 0.30692,-3.57055 -0.18257,-0.957 -0.47361,-3.54198 0.64822,-3.61104 1.00013,1.71927 2.15371,3.16812 3.58246,3.74333 0.36248,0.98822 0.92604,1.70656 1.81504,0.91149 1.07157,0.85725 1.64836,3.92218 2.70934,1.58776 1.27794,0.8898 2.30187,1.40176 2.84691,2.84824 0.15082,1.24487 1.71715,0.49239 1.37848,2.33574 0.26988,1.06945 1.3044,2.31299 1.70127,0.57944 0.89165,-1.95712 2.32569,-2.96571 3.11415,-0.29686 1.38377,0.81862 1.3044,2.71251 2.05052,3.64093 1.13242,0.78819 0.36777,3.10383 0.66146,4.39102 0.11642,0.55404 1.34408,1.49014 0.14552,2.47994 -0.97631,2.0574 -3.04535,2.59583 -4.89215,3.58934 2.46857,0.76756 5.01386,1.28482 7.493,2.01851 1.79917,1.39541 -2.52677,0.0315 -3.38137,-0.14314 -1.74096,-0.4326 -3.49779,-0.99722 -5.26785,-1.18216 1.83091,1.51553 2.80722,3.72851 3.51895,5.93963 -0.48154,1.51527 -0.045,3.20384 -0.67733,4.6781 -0.1561,0.24103 -0.27781,0.51329 -0.508,0.69532 z"
       id="path68"
       inkscape:connector-curvature="0" />
    <path
       style="fill:#b05900;fill-opacity:1;stroke-width:0.26458332"
       d="m 113.99806,94.617929 c -1.11125,-0.518054 0.0344,-2.502694 -1.80975,-1.264444 -1.44198,-0.04683 -3.70152,0.469107 -4.19365,-1.019968 -2.13518,-0.25744 -2.54529,-1.735667 -4.58258,-2.166409 -2.54794,-1.449123 0.94721,-2.415116 1.92617,-3.373437 0.0503,-0.754856 -3.44488,-5.29e-4 -3.683,-1.531938 -2.315113,-0.178329 -3.669773,-2.140479 -5.490903,-3.525837 -0.0349,-1.163373 3.15992,-1.783027 0.35586,-2.160588 -0.91492,-1.189037 -2.1672,-1.835414 -3.42,-3.184525 2.34633,-1.408641 -1.72826,-2.409825 -1.51236,-3.824816 -1.04986,-1.075267 -3.59489,-1.885157 -3.46763,-3.507687 2.25902,0.253312 3.50679,-0.476462 5.57001,-0.440002 -0.0931,-1.62232 2.20213,-0.286941 3.06493,-0.846191 1.34409,0.419471 2.43682,0.794756 2.81517,-0.784833 1.992313,0.543322 3.426363,1.80377 5.138213,2.633636 1.57162,1.377685 2.74373,0.824441 1.24354,-1.012534 -1.48696,-2.110846 -1.88648,-3.34018 -3.35227,-5.621682 -0.29369,-1.162817 1.86531,-0.865108 0.40481,-2.22713 -0.35189,-0.836268 -1.12977,-2.041922 0.24342,-2.298038 -0.0212,-1.355673 -1.28323,-3.720598 0.11112,-4.471221 1.47638,0.570204 3.50309,1.552073 2.82575,-0.94017 0.40217,-1.239865 -1.43668,-3.476864 1.143,-2.938278 1.34938,-0.03323 -0.92075,-3.204237 1.38907,-2.76106 -0.53182,-1.33096 -0.26988,-2.335379 0.1561,-3.208948 -0.39952,-1.608542 0.11642,-3.323789 -0.60589,-5.013773 -0.40482,-3.433841 3.2041,1.444025 3.18822,2.872426 0.60325,1.643816 1.82034,2.560703 2.03994,4.205311 1.31234,-2.098397 2.0029,2.119445 3.32052,1.32453 0.34925,1.474947 2.49767,-1.230973 2.70669,1.181788 0.75142,0.508265 0.30163,1.869493 1.40229,2.089256 -0.14816,1.458331 0.43921,2.673404 1.76477,1.168003 2.51354,-1.894072 1.27,2.981432 2.64584,3.050621 -0.28311,2.068856 0.15081,3.93483 -0.037,5.913622 0.84403,0.567955 -0.52122,3.471995 0.49213,3.515122 1.57427,-1.223724 1.85208,-3.226779 3.1406,-4.53636 0.46302,-0.901198 1.73302,-1.710188 2.16694,-0.289507 1.53723,-0.43479 2.14577,-2.609612 3.45017,-1.966119 0.75935,-0.766604 2.93158,-2.659142 3.70152,-1.678014 -0.93927,1.992894 -1.53458,3.957241 -1.16152,5.622316 -0.67469,0.952103 -0.97631,1.917065 0.30956,2.227289 -0.10848,1.516724 -2.54265,3.970153 0.254,3.470355 -0.008,1.724289 0.16933,2.980478 -0.80698,4.388061 -1.04246,0.920486 0.62971,1.875896 -1.26471,2.726532 -0.80433,0.917839 -1.28852,2.64451 0.5424,1.916906 2.34421,-0.418042 4.16719,0.25691 2.22779,2.652448 0.12435,1.778794 -1.65365,2.895864 -2.032,4.159779 -0.008,1.528762 -2.59821,2.288381 -3.5904,3.364177 -0.43127,0.456142 -0.51329,2.163498 -2.16958,1.69254 -2.48973,0.402695 -4.28096,-1.144588 -6.35,-2.205832 0.85196,2.734205 1.98173,5.38189 2.87073,8.104452 -0.14023,2.520421 -1.61925,-2.28547 -1.99496,-3.173677 -0.70114,-1.859756 -1.29116,-3.818731 -2.23573,-5.550164 -0.23018,2.624931 -1.63512,4.905375 -3.20675,6.944783 -1.68275,0.513821 -2.94746,1.975379 -4.69106,2.324894 -0.3175,0.01005 -0.64294,0.06932 -0.9525,-0.02567 z"
       id="path74"
       inkscape:connector-curvature="0" />
    <path
       style="fill:#bebe00;fill-opacity:1;stroke-width:0.26458332"
       d="m 61.740467,57.002567 c 0.22331,-1.383718 2.76569,-0.743929 0.82682,-2.384611 -0.39952,-1.603375 -1.67402,-3.92946 -0.18864,-4.935935 -0.38365,-2.429748 1.11469,-3.344942 0.9517,-5.72298 0.79931,-3.255968 2.95513,0.289298 4.31589,1.067178 0.84613,-0.18225 -1.07686,-3.793675 0.53525,-4.532077 -0.52811,-2.606082 1.20835,-4.710895 2.16402,-7.147099 1.26974,-0.402273 2.9509,2.921794 2.48947,-0.283845 1.02288,-1.378716 1.34276,-2.959073 2.43628,-4.759827 2.28389,2.142119 2.11217,-2.655836 3.73751,-2.860332 0.85513,-1.491906 0.95091,-4.546283 2.7768,-4.913577 0.4273,2.565744 1.62084,3.711204 2.22567,5.993553 1.75657,-0.609679 1.0041,2.334314 1.88939,3.109331 -0.0415,1.610387 -0.11297,2.930816 1.74361,2.852473 0.0254,2.364316 -0.91387,4.336441 -1.29249,6.479222 -1.02473,2.16213 -0.0495,3.278434 1.50362,1.053703 1.8587,-2.296001 3.08637,-3.121951 5.1398,-5.447612 1.18824,-0.686197 1.53538,1.782974 2.57784,-0.251354 0.81041,-0.649208 1.89388,-1.881055 2.60561,-0.449104 1.48696,-0.448283 3.693593,-2.57749 4.955653,-1.276059 -0.16404,1.803824 -0.61383,4.339696 1.91823,2.817046 1.49225,0.05395 3.37873,-2.668006 3.59304,0.338534 0.45773,1.473703 3.2385,-2.013664 3.47133,0.665718 1.29911,-1.001289 2.48709,-1.025763 3.58246,-0.832247 1.64571,-0.940303 3.69623,-0.908553 5.32871,-2.233242 3.6539,-1.519845 -0.58738,3.97801 -2.16429,4.406265 -1.6219,1.180068 -2.24896,2.806578 -3.99256,3.561025 2.71991,0.788593 -1.70657,2.866014 -0.41805,4.06977 -1.51606,0.845635 2.13519,2.363682 -0.45508,3.34817 -0.32544,0.984673 -1.96321,0.91522 -1.86267,2.196147 -1.651,0.2921 -2.80458,1.318472 -0.73289,2.309311 2.87073,2.173949 -2.88396,2.328307 -2.53206,3.863763 -2.36538,0.335836 -4.28361,1.398429 -6.51934,1.807713 -0.36248,1.107467 -3.984623,0.511546 -3.717393,1.640708 1.841503,1.351994 4.132793,1.029626 5.976933,2.040705 1.13507,0.22725 2.42359,1.372817 0.99484,2.293805 0.96043,1.555115 3.54541,1.547098 3.24379,3.182197 1.0795,0.596212 3.84439,2.397495 3.00302,3.550549 -2.48708,-0.411162 -4.83394,-0.452967 -6.55108,0.478896 -1.25942,-0.443706 -2.41565,-0.473604 -2.3548,1.036108 -1.70391,0.355336 -5.164663,-1.556014 -3.741203,1.366309 -1.89971,0.529431 -3.22713,1.11707 -5.08159,0.482335 -1.33853,-0.857779 -1.8677,1.280583 -3.39619,-0.538162 -1.26259,-0.600869 -3.31391,-0.593461 -1.94072,1.195122 1.19327,2.450836 1.01997,4.66778 -2.2233,3.281098 -1.91902,0.693209 -3.70443,-0.915458 -5.21387,-0.936095 -1.68487,0.470164 -3.33164,-2.145771 -4.82521,-2.899569 -0.63685,-0.332052 -2.54185,0.110596 -2.54132,-1.860021 -1.22211,-2.615935 -0.0788,-5.070925 0.44264,-7.679425 -2.7432,1.79234 -5.30489,3.86281 -8.02349,5.692669 -2.81807,0.633148 2.01004,-2.495259 2.86968,-3.188124 1.82853,-1.35165 3.80021,-2.614215 5.41046,-4.194863 -2.96122,0.567399 -5.91053,-0.267678 -8.64632,-1.357603 -1.09193,-1.693968 -3.09615,-2.628953 -4.02563,-4.438333 -0.11034,-0.346313 -0.27755,-0.685905 -0.26988,-1.057327 z"
       id="path83"
       inkscape:connector-curvature="0" />
    <path
       style="fill:#c43f01;fill-opacity:1;stroke-width:0.26458332"
       d="m 57.120317,45.043452 c 1.42875,0.47371 0.31512,3.059297 2.38627,1.285107 1.76821,-0.149145 4.45241,-1.101693 5.26495,0.645293 2.6416,0.0093 3.35518,1.754505 5.90417,1.989005 3.3147,1.404779 -0.8128,3.083216 -1.8706,4.392428 0.0484,0.928264 4.20635,-0.491887 4.71302,1.343554 2.85301,-0.113532 4.78711,2.087801 7.20593,3.518271 0.20902,1.414859 -3.60283,2.627868 -0.12541,2.687637 1.2864,1.320351 2.90697,1.930268 4.62862,3.397859 -2.66197,2.054437 2.45374,2.693961 2.39236,4.451879 1.4351,1.162209 4.65667,1.78689 4.7334,3.785288 -2.79321,0.01349 -4.21191,1.082675 -6.73497,1.332971 0.34528,1.966648 -2.64663,0.664633 -3.62003,1.470554 -1.69995,-0.319881 -3.08742,-0.621771 -3.32237,1.359958 -2.5109,-0.378089 -4.44051,-1.711589 -6.6474,-2.479939 -2.11666,-1.456532 -3.4671,-0.614098 -1.37451,1.413668 2.11561,2.363523 2.78104,3.806561 4.8948,6.38175 0.52387,1.377157 -2.15318,1.322388 -0.17489,2.775744 0.54927,0.970227 1.66952,2.330715 0.0296,2.839509 0.22093,1.651264 2.1,4.357158 0.50403,5.472641 -1.88383,-0.484981 -4.49553,-1.393825 -3.31496,1.551252 -0.31221,1.570302 2.25001,4.037807 -0.97394,3.748882 -1.64068,0.233362 1.5801,3.779307 -1.30042,3.568167 0.83899,1.54834 0.66146,2.81173 0.26908,3.93859 0.71464,1.90632 0.3302,4.07326 1.45468,6.0325 0.98557,4.13279 -4.11639,-1.30466 -4.30027,-3.05038 -0.97367,-1.91955 -2.59028,-2.86464 -3.09166,-4.84055 -1.30175,2.74849 -2.74585,-2.30056 -4.24259,-1.14194 -0.63712,-1.75022 -2.87126,1.85896 -3.47134,-1.05569 -0.98822,-0.51303 -0.63394,-2.238641 -2.00951,-2.349502 -0.0267,-1.801018 -0.91704,-3.19987 -2.32251,-1.172898 -2.79612,2.67044 -1.97406,-3.457575 -3.66236,-3.345391 0.0489,-2.565136 -0.74904,-4.780227 -0.79957,-7.222331 -1.11231,-0.572559 0.13996,-4.311915 -1.10305,-4.219575 -1.74837,1.718468 -1.7989,4.202377 -3.18691,5.985139 -0.4355,1.165754 -1.87034,2.334683 -2.60218,0.662781 -1.81266,0.750094 -2.24684,3.491442 -3.92879,2.892425 -0.81704,1.044046 -3.19988,3.664215 -4.27832,2.576777 0.86175,-2.566458 1.3081,-5.048779 0.614363,-7.027597 0.685797,-1.258094 0.915727,-2.478882 -0.695325,-2.674144 -0.08493,-1.866371 2.534182,-5.208323 -0.807773,-4.198673 -0.235479,-2.105554 -0.631296,-3.613415 0.359039,-5.47079 1.138767,-1.272116 -1.037431,-2.199216 1.152261,-3.50811 0.853285,-1.23534 1.196445,-3.411538 -0.934509,-2.261923 -2.802731,0.845344 -5.123127,0.282046 -3.097477,-2.918804 -0.4064,-2.153047 1.604698,-3.770418 1.884892,-5.36702 -0.209815,-1.866768 2.845329,-3.164364 3.900229,-4.618752 0.46117,-0.618199 0.31829,-2.713567 2.40718,-2.375561 2.98238,-0.847355 5.3893,0.784966 8.06529,1.784588 -1.43034,-3.215137 -3.18638,-6.285258 -4.6609,-9.480816 -0.18838,-3.095781 2.30108,2.558177 2.88846,3.588279 1.11971,2.169876 2.12063,4.476196 3.52028,6.454088 -0.0942,-3.236383 1.29619,-6.220143 2.91994,-8.933472 1.98279,-0.867727 3.31735,-2.832152 5.39459,-3.507597 0.38603,-0.05779 0.7747,-0.176725 1.16708,-0.105129 z"
       id="path92"
       inkscape:connector-curvature="0" />
    <path
       style="fill:#79cf08;fill-opacity:1;stroke-width:0.26458332"
       d="m 140.45375,116.13728 c -0.76994,-1.51579 2.18016,-2.70695 -0.89429,-2.92867 -1.53988,-1.28534 -4.4503,-2.65377 -3.71475,-4.70244 -2.11402,-2.10714 -1.29911,-4.07564 -3.16177,-6.28967 -1.54517,-3.762642 3.10356,-1.82986 4.99533,-2.04073 0.6985,-0.783699 -3.77031,-2.947991 -2.71727,-4.824416 -2.38125,-2.176462 -2.18546,-5.481373 -2.98979,-8.552656 0.95514,-1.302279 4.97945,0.753269 2.23573,-2.058458 0.0159,-2.0828 -0.79905,-3.860536 -1.016,-6.407415 3.77031,0.465931 0.16933,-4.113477 1.6166,-5.476081 -0.22754,-2.074069 -2.31775,-5.136039 -0.7911,-6.801776 2.2516,2.209085 4.24127,2.478193 6.46641,4.282413 1.28588,-1.853723 2.65377,1.569773 4.07459,1.695979 1.11125,1.608138 1.98702,2.95328 3.74914,1.548871 1.71715,2.299229 2.20663,4.903788 3.36815,7.274454 0.54239,2.851944 2.29658,3.248555 2.22779,-0.0426 0.17992,-3.579548 0.7911,-5.267061 1.14035,-9.015148 0.67469,-1.522148 2.78077,0.649552 2.34686,-2.08968 0.33073,-1.215945 0.51064,-3.198706 2.23308,-2.304018 1.13506,-1.501563 1.778,-5.167735 3.94494,-4.795096 1.12712,1.886585 2.50296,4.692147 3.89466,1.38893 1.50019,-1.012825 1.4023,-5.030735 3.76238,-2.236549 1.50283,1.116753 1.73302,-4.290404 3.87879,-1.831605 0.55827,-1.910212 1.70392,-2.783708 2.91571,-3.37648 0.93927,-2.098993 2.97127,-3.533484 3.62479,-6.000407 2.49502,-4.102047 2.27013,4.319244 1.02923,5.867136 -0.74348,2.315263 -0.19579,4.359011 -1.36525,6.344285 3.23056,-1.172395 0.37835,4.029816 2.50031,4.288869 -0.87841,1.911774 3.78354,0.789332 1.94998,3.606906 0.38365,1.19724 -1.27264,2.301346 -0.254,3.483504 -1.41023,1.467644 -1.8071,3.298825 0.93134,2.787915 4.36827,0.07779 -1.16153,4.345517 0.2831,5.59726 -2.07963,2.020888 -3.19881,4.433888 -5.09852,6.435196 0.43921,1.343819 -3.54013,3.351213 -2.46856,4.265084 2.77018,0.0095 4.78631,-1.944952 7.31573,-2.2733 1.27793,-0.590286 3.35756,-0.388409 2.61672,1.535906 2.05317,0.8382 4.57994,-1.018117 5.45307,0.799835 1.48696,-0.188912 5.48216,-0.399521 5.48481,1.331119 -2.7305,1.375833 -5.06413,3.014663 -6.07748,5.155142 -1.5531,0.465141 -2.70669,1.262851 -1.56898,2.699811 -1.41552,1.56633 -6.17273,2.16826 -2.68817,4.01373 -1.48431,1.87801 -2.36537,3.40333 -4.6355,4.10765 -1.92616,0.11642 -0.91545,2.5908 -3.71475,1.9013 -1.66687,0.31406 -3.67241,1.78858 -1.0451,2.55931 2.921,1.54861 4.33652,3.84519 0.16669,4.80562 -1.38642,2.05185 -4.28625,1.75235 -5.7785,2.81174 -1.31763,1.66581 -4.80219,0.27966 -6.80509,0.60907 -0.85989,0.12991 -2.41035,1.92616 -3.82058,-0.006 -3.06652,-1.68989 -3.70417,-4.91358 -5.05883,-7.84304 -1.40494,3.71845 -2.43417,7.57952 -3.79148,11.31755 -2.30981,2.63578 0.18521,-3.88329 0.53181,-5.1771 0.8255,-2.63235 1.85473,-5.27976 2.30452,-7.98063 -2.49766,2.67388 -5.98487,3.96478 -9.44562,4.85298 -2.28336,-0.87921 -4.91596,-0.36221 -7.11994,-1.47081 -0.35719,-0.26035 -0.762,-0.47387 -1.02129,-0.84323 z"
       id="path100"
       inkscape:connector-curvature="0" />
  </g>
</svg>
